HIERARCHY
ROOT hip
{
  OFFSET 0.00112043 5.09927 -9.65472
  CHANNELS 6 Xposition Yposition Zposition Zrotation Xrotation Yrotation
  JOINT abdomen
  {
    OFFSET 0 -1.186 -1.5018
    CHANNELS 3 Zrotation Xrotation Yrotation
    JOINT abdomen2
    {
      OFFSET 0 9.964 0.2134
      CHANNELS 3 Zrotation Xrotation Yrotation
      JOINT chest
      {
        OFFSET 0 13.134 -3.2573
        CHANNELS 3 Zrotation Xrotation Yrotation
        JOINT neck
        {
          OFFSET 0 20.686 -1.6905
          CHANNELS 3 Zrotation Xrotation Yrotation
          JOINT head
          {
            OFFSET 0 7.238 -0.1237
            CHANNELS 3 Zrotation Xrotation Yrotation
            End Site
            {
              OFFSET 0 0 0
            }
          }
        }
        JOINT lCollar
        {
          OFFSET 1.7069 20.075 5.0056
          CHANNELS 3 Zrotation Xrotation Yrotation
          JOINT lShldr
          {
            OFFSET 13.6458 -0.047 -4.849
            CHANNELS 3 Zrotation Xrotation Yrotation
            JOINT lForeArm
            {
              OFFSET 28.3255 -0.9759 2.2888
              CHANNELS 3 Zrotation Xrotation Yrotation
              JOINT lHand
              {
                OFFSET 22.1583 -0.53 10.8316
                CHANNELS 3 Zrotation Xrotation Yrotation
                JOINT lThumb1
                {
                  OFFSET 0.786 0.112 2.5817
                  CHANNELS 3 Zrotation Xrotation Yrotation
                  JOINT lThumb2
                  {
                    OFFSET 0.3601 -0.878 4.2331
                    CHANNELS 3 Zrotation Xrotation Yrotation
                    JOINT lThumb2_End
                    {
                      OFFSET 1.8127 -1.216 2.2227
                      CHANNELS 3 Zrotation Xrotation Yrotation
                      End Site
                      {
                        OFFSET 0.0181 -0.0122 0.0222
                      }
                    }
                  }
                }
                JOINT lCarpal1
                {
                  OFFSET 0.9571 1.114 1.7695
                  CHANNELS 3 Zrotation Xrotation Yrotation
                  JOINT lIndex1
                  {
                    OFFSET 4.1246 0.487 4.1451
                    CHANNELS 3 Zrotation Xrotation Yrotation
                    JOINT lIndex2
                    {
                      OFFSET 3.4052 -1.454 2.7682
                      CHANNELS 3 Zrotation Xrotation Yrotation
                      JOINT lIndex2_End
                      {
                        OFFSET 1.4531 -1.795 1.2713
                        CHANNELS 3 Zrotation Xrotation Yrotation
                        End Site
                        {
                          OFFSET 0.0145 -0.0179 0.0127
                        }
                      }
                    }
                  }
                  JOINT lMid1
                  {
                    OFFSET 5.6954 0.21 2.1184
                    CHANNELS 3 Zrotation Xrotation Yrotation
                    JOINT lMid2
                    {
                      OFFSET 3.9766 -1.54 2.3863
                      CHANNELS 3 Zrotation Xrotation Yrotation
                      JOINT lMid2_End
                      {
                        OFFSET 1.4042 -1.926 1.125
                        CHANNELS 3 Zrotation Xrotation Yrotation
                        End Site
                        {
                          OFFSET 0.014 -0.0193 0.0113
                        }
                      }
                    }
                  }
                }
                JOINT lCarpal2
                {
                  OFFSET 2.0956 0.66 -0.3894
                  CHANNELS 3 Zrotation Xrotation Yrotation
                  JOINT lRing1
                  {
                    OFFSET 5.0395 -0.09 2.4971
                    CHANNELS 3 Zrotation Xrotation Yrotation
                    JOINT lRing2
                    {
                      OFFSET 3.7921 -1.552 1.4806
                      CHANNELS 3 Zrotation Xrotation Yrotation
                      JOINT lRing2_End
                      {
                        OFFSET 1.4655 -1.808 0.9609
                        CHANNELS 3 Zrotation Xrotation Yrotation
                        End Site
                        {
                          OFFSET 0.0147 -0.0181 0.0096
                        }
                      }
                    }
                  }
                  JOINT lPinky1
                  {
                    OFFSET 4.9141 -1.269 0.3591
                    CHANNELS 3 Zrotation Xrotation Yrotation
                    JOINT lPinky2
                    {
                      OFFSET 3.1477 -1.685 0.8462
                      CHANNELS 3 Zrotation Xrotation Yrotation
                      JOINT lPinky2_End
                      {
                        OFFSET 0.8055 -1.585 0.7955
                        CHANNELS 3 Zrotation Xrotation Yrotation
                        End Site
                        {
                          OFFSET 0.0081 -0.0158 0.008
                        }
                      }
                    }
                  }
                }
              }
            }
          }
        }
        JOINT rCollar
        {
          OFFSET -1.7069 20.075 5.0056
          CHANNELS 3 Zrotation Xrotation Yrotation
          JOINT rShldr
          {
            OFFSET -13.6458 -0.047 -4.849
            CHANNELS 3 Zrotation Xrotation Yrotation
            JOINT rForeArm
            {
              OFFSET -28.3255 -0.9759 2.2888
              CHANNELS 3 Zrotation Xrotation Yrotation
              JOINT rHand
              {
                OFFSET -22.1583 -0.53 10.8316
                CHANNELS 3 Zrotation Xrotation Yrotation
                JOINT rThumb1
                {
                  OFFSET -0.786 0.112 2.5817
                  CHANNELS 3 Zrotation Xrotation Yrotation
                  JOINT rThumb2
                  {
                    OFFSET -0.3601 -0.878 4.2331
                    CHANNELS 3 Zrotation Xrotation Yrotation
                    JOINT rThumb2_End
                    {
                      OFFSET -1.8127 -1.216 2.2227
                      CHANNELS 3 Zrotation Xrotation Yrotation
                      End Site
                      {
                        OFFSET -0.0181 -0.0122 0.0222
                      }
                    }
                  }
                }
                JOINT rCarpal1
                {
                  OFFSET -0.9571 1.114 1.7695
                  CHANNELS 3 Zrotation Xrotation Yrotation
                  JOINT rIndex1
                  {
                    OFFSET -4.1246 0.487 4.1451
                    CHANNELS 3 Zrotation Xrotation Yrotation
                    JOINT rIndex2
                    {
                      OFFSET -3.4052 -1.454 2.7682
                      CHANNELS 3 Zrotation Xrotation Yrotation
                      JOINT rIndex2_End
                      {
                        OFFSET -1.4531 -1.795 1.2713
                        CHANNELS 3 Zrotation Xrotation Yrotation
                        End Site
                        {
                          OFFSET -0.0145 -0.018 0.0127
                        }
                      }
                    }
                  }
                  JOINT rMid1
                  {
                    OFFSET -5.6954 0.21 2.1184
                    CHANNELS 3 Zrotation Xrotation Yrotation
                    JOINT rMid2
                    {
                      OFFSET -3.9766 -1.54 2.3863
                      CHANNELS 3 Zrotation Xrotation Yrotation
                      JOINT rMid2_End
                      {
                        OFFSET -1.4042 -1.926 1.125
                        CHANNELS 3 Zrotation Xrotation Yrotation
                        End Site
                        {
                          OFFSET -0.014 -0.0193 0.0113
                        }
                      }
                    }
                  }
                }
                JOINT rCarpal2
                {
                  OFFSET -2.0956 0.66 -0.3894
                  CHANNELS 3 Zrotation Xrotation Yrotation
                  JOINT rRing1
                  {
                    OFFSET -5.0395 -0.09 2.4971
                    CHANNELS 3 Zrotation Xrotation Yrotation
                    JOINT rRing2
                    {
                      OFFSET -3.7921 -1.552 1.4806
                      CHANNELS 3 Zrotation Xrotation Yrotation
                      JOINT rRing2_End
                      {
                        OFFSET -1.4655 -1.808 0.9609
                        CHANNELS 3 Zrotation Xrotation Yrotation
                        End Site
                        {
                          OFFSET -0.0147 -0.0181 0.0096
                        }
                      }
                    }
                  }
                  JOINT rPinky1
                  {
                    OFFSET -4.9141 -1.269 0.3592
                    CHANNELS 3 Zrotation Xrotation Yrotation
                    JOINT rPinky2
                    {
                      OFFSET -3.1477 -1.685 0.8462
                      CHANNELS 3 Zrotation Xrotation Yrotation
                      JOINT rPinky2_End
                      {
                        OFFSET -0.8055 -1.585 0.7955
                        CHANNELS 3 Zrotation Xrotation Yrotation
                        End Site
                        {
                          OFFSET -0.0081 -0.0158 0.008
                        }
                      }
                    }
                  }
                }
              }
            }
          }
        }
      }
    }
  }
  JOINT lThigh
  {
    OFFSET 8.367 -8.2066 0.5982
    CHANNELS 3 Zrotation Xrotation Yrotation
    JOINT lShin
    {
      OFFSET 2.1923 -43.463 -0.4932
      CHANNELS 3 Zrotation Xrotation Yrotation
      JOINT lFoot
      {
        OFFSET 0.7333 -45.8593 -2.6451
        CHANNELS 3 Zrotation Xrotation Yrotation
        End Site
        {
          OFFSET 2.6618 -4.2699 12.3931
        }
      }
    }
  }
  JOINT rThigh
  {
    OFFSET -8.367 -8.2066 0.5982
    CHANNELS 3 Zrotation Xrotation Yrotation
    JOINT rShin
    {
      OFFSET -2.1923 -43.463 -0.4931
      CHANNELS 3 Zrotation Xrotation Yrotation
      JOINT rFoot
      {
        OFFSET -0.7333 -45.8593 -2.6451
        CHANNELS 3 Zrotation Xrotation Yrotation
        End Site
        {
          OFFSET -2.6618 -4.2699 12.3931
        }
      }
    }
  }
}
MOTION
Frames:	5
Frame Time:	0.0333333
9.04883 -9.17501 6.53909 105.415 -4.35275 164.598 1.39203e-005 20.7994 -4.55428e-006 -6.87378e-006 41.5988 -1.92457e-005 1.46417e-005 41.5988 3.2593e-006 8.36932e-005 30.9991 -3.69155e-005 -1.58006e-005 -35.0004 -6.47175e-006 -1.61063e-005 -2.57399e-006 -5.68393e-006 -45.9855 -2.65551 -85.9881 -16.6063 13.6967 -128.964 49.7951 14.4274 13.6601 -1.77925e-006 2.64837e-006 1.1459e-006 -4.42761e-006 8.6912e-007 1.55848e-006 -8.89623e-007 1.32418e-006 5.72952e-007 1.59028e-015 6.36111e-015 -0 -1.77925e-006 2.64837e-006 1.1459e-006 -4.42761e-006 8.6912e-007 1.55848e-006 -8.89623e-007 1.32418e-006 5.72953e-007 -1.77925e-006 2.64837e-006 1.1459e-006 -4.42761e-006 8.6912e-007 1.55848e-006 -8.89623e-007 1.32418e-006 5.72953e-007 1.59028e-015 6.36111e-015 -0 -1.77925e-006 2.64837e-006 1.1459e-006 -4.42761e-006 8.6912e-007 1.55848e-006 -8.89623e-007 1.32418e-006 5.72953e-007 -1.77925e-006 2.64837e-006 1.1459e-006 -4.42761e-006 8.6912e-007 1.55848e-006 -8.89623e-007 1.32418e-006 5.72953e-007 8.25995 3.72199 17.8076 47.1052 15.8939 53.0407 3.33026 2.5643 -21.3766 39.1691 16.5901 -24.0708 4.82771e-033 1.98785e-016 -1.39149e-015 -3.18055e-015 1.98785e-016 -1.78906e-015 -3.31043e-032 1.59028e-015 1.19271e-015 6.36111e-015 3.37934e-015 -1.39149e-015 -3.18055e-015 -1.63003e-014 9.54166e-015 3.18055e-015 9.24349e-015 -1.98785e-016 3.18055e-015 4.77083e-015 -1.98785e-016 -3.18055e-015 -1.63003e-014 9.54166e-015 3.18055e-015 9.24349e-015 -1.98785e-016 3.18055e-015 4.77083e-015 -1.98785e-016 6.36111e-015 3.37934e-015 -1.39149e-015 -3.18055e-015 -1.63003e-014 9.54166e-015 3.18055e-015 9.24349e-015 -1.98785e-016 3.18055e-015 4.77083e-015 -1.98785e-016 -3.18055e-015 -1.63003e-014 9.54166e-015 3.18055e-015 9.24349e-015 -1.98785e-016 3.18055e-015 4.77083e-015 -1.98785e-016 11.4919 13.7988 22.415 -9.8613 57.8788 10.119 2.36846 3.97416 -0.237726 -76.1697 -35.0277 -47.089 -178.536 50.7559 169.528 -5.36384 32.2653 -4.51211 
9.04371 -9.15368 6.86351 105.415 -4.35275 164.598 1.39203e-005 20.7994 -4.55428e-006 -6.87378e-006 41.5988 -1.92457e-005 1.46417e-005 41.5988 3.2593e-006 7.07489e-005 30.9992 -1.8096e-005 -9.5355e-006 -35.0004 -7.8873e-006 -1.61063e-005 -2.57399e-006 -5.68393e-006 -45.9855 -2.65551 -85.9881 -16.6063 13.6967 -128.964 49.7951 14.4274 13.6601 -1.77925e-006 2.64837e-006 1.1459e-006 -4.42761e-006 8.6912e-007 1.55848e-006 -8.89623e-007 1.32418e-006 5.72952e-007 1.59028e-015 6.36111e-015 -0 -1.77925e-006 2.64837e-006 1.1459e-006 -4.42761e-006 8.6912e-007 1.55848e-006 -8.89623e-007 1.32418e-006 5.72953e-007 -1.77925e-006 2.64837e-006 1.1459e-006 -4.42761e-006 8.6912e-007 1.55848e-006 -8.89623e-007 1.32418e-006 5.72953e-007 1.59028e-015 6.36111e-015 -0 -1.77925e-006 2.64837e-006 1.1459e-006 -4.42761e-006 8.6912e-007 1.55848e-006 -8.89623e-007 1.32418e-006 5.72953e-007 -1.77925e-006 2.64837e-006 1.1459e-006 -4.42761e-006 8.6912e-007 1.55848e-006 -8.89623e-007 1.32418e-006 5.72953e-007 8.25995 3.72199 17.8076 47.1052 15.8939 53.0407 3.33596 2.53442 -21.3774 39.1691 16.5901 -24.0707 -3.18055e-015 -4.87022e-015 -0 -3.18055e-015 2.68359e-015 -7.95139e-016 3.18055e-015 -3.67752e-015 -3.97569e-016 -3.18055e-015 -4.87022e-015 -0 -6.36111e-015 -1.95803e-014 5.56597e-015 0 0 -9.93923e-016 8.62091e-032 -2.48481e-015 1.98785e-015 -6.36111e-015 -1.95803e-014 5.56597e-015 0 0 -9.93923e-016 8.62091e-032 -2.48481e-015 1.98785e-015 -3.18055e-015 -4.87022e-015 -0 -6.36111e-015 -1.95803e-014 5.56597e-015 0 0 -9.93923e-016 8.62091e-032 -2.48481e-015 1.98785e-015 -6.36111e-015 -1.95803e-014 5.56597e-015 0 0 -9.93923e-016 8.62091e-032 -2.48481e-015 1.98785e-015 11.8558 13.2117 22.0441 -10.0297 58.6384 10.3735 2.35867 4.07854 -0.237302 -75.9909 -34.9923 -46.8362 -178.535 50.735 169.487 -5.38835 32.2619 -4.53008 
9.03888 -9.13259 7.18804 105.415 -4.35275 164.598 1.39203e-005 20.7994 -4.55428e-006 -6.87378e-006 41.5988 -1.92457e-005 1.46417e-005 41.5988 3.2593e-006 7.98227e-006 30.9992 -1.66792e-005 -5.69633e-006 -35.0004 -6.15691e-006 -1.61063e-005 -2.57399e-006 -5.68393e-006 -45.9855 -2.65551 -85.9881 -16.6063 13.6967 -128.964 49.7951 14.4274 13.6601 -1.77925e-006 2.64837e-006 1.1459e-006 -4.42761e-006 8.6912e-007 1.55848e-006 -8.89623e-007 1.32418e-006 5.72953e-007 0 4.77083e-015 -0 -1.77925e-006 2.64837e-006 1.1459e-006 -4.42761e-006 8.6912e-007 1.55848e-006 -8.89623e-007 1.32418e-006 5.72953e-007 -1.77925e-006 2.64837e-006 1.1459e-006 -4.42761e-006 8.6912e-007 1.55848e-006 -8.89623e-007 1.32418e-006 5.72953e-007 0 4.77083e-015 -0 -1.77925e-006 2.64837e-006 1.1459e-006 -4.42761e-006 8.6912e-007 1.55848e-006 -8.89623e-007 1.32418e-006 5.72953e-007 -1.77925e-006 2.64837e-006 1.1459e-006 -4.42761e-006 8.6912e-007 1.55848e-006 -8.89623e-007 1.32418e-006 5.72953e-007 8.25995 3.72199 17.8076 47.1052 15.8939 53.0407 3.34114 2.50441 -21.3781 39.1691 16.5901 -24.0707 -6.36111e-015 -2.28602e-015 2.18663e-015 -1.34486e-031 1.49089e-015 5.1684e-015 -6.36111e-015 6.65929e-015 -9.93923e-016 -6.36111e-015 -5.46658e-015 2.18663e-015 3.18055e-015 -1.43125e-014 8.54774e-015 -3.18055e-015 -2.18663e-015 2.38542e-015 3.18055e-015 3.47873e-015 -9.93923e-016 3.18055e-015 -1.43125e-014 8.54774e-015 -3.18055e-015 -2.18663e-015 2.38542e-015 3.18055e-015 3.47873e-015 -9.93923e-016 -6.36111e-015 -5.46658e-015 2.18663e-015 3.18055e-015 -1.43125e-014 8.54774e-015 -3.18055e-015 -2.18663e-015 2.38542e-015 3.18055e-015 3.47873e-015 -9.93923e-016 3.18055e-015 -1.43125e-014 8.54774e-015 -3.18055e-015 -2.18663e-015 2.38542e-015 3.18055e-015 3.47873e-015 -9.93923e-016 12.2159 12.6205 21.6778 -10.2108 59.4007 10.6402 2.34995 4.18185 -0.23694 -75.8136 -34.9562 -46.5841 -178.534 50.7138 169.447 -5.41264 32.2591 -4.54794 
9.03433 -9.11175 7.5127 105.415 -4.35275 164.598 1.39203e-005 20.7994 -4.55428e-006 -6.87378e-006 41.5988 -1.92457e-005 1.46417e-005 41.5988 3.2593e-006 7.07489e-005 30.9992 -1.8096e-005 -9.5355e-006 -35.0004 -7.8873e-006 -1.61063e-005 -2.57399e-006 -5.68393e-006 -45.9855 -2.65551 -85.9881 -16.6063 13.6967 -128.964 49.7951 14.4274 13.6601 -1.77925e-006 2.64837e-006 1.14591e-006 -3.9828e-006 2.07029e-007 1.272e-006 -8.89623e-007 1.32418e-006 5.72953e-007 -4.77083e-015 -2.38542e-015 -0 -1.77925e-006 2.64837e-006 1.14591e-006 -3.9828e-006 2.07029e-007 1.272e-006 -8.89623e-007 1.32418e-006 5.72953e-007 -1.77925e-006 2.64837e-006 1.14591e-006 -3.9828e-006 2.07029e-007 1.272e-006 -8.89623e-007 1.32418e-006 5.72953e-007 -4.77083e-015 -2.38542e-015 -0 -1.77925e-006 2.64837e-006 1.14591e-006 -3.9828e-006 2.07029e-007 1.272e-006 -8.89623e-007 1.32418e-006 5.72953e-007 -1.77925e-006 2.64837e-006 1.14591e-006 -3.9828e-006 2.07029e-007 1.272e-006 -8.89623e-007 1.32418e-006 5.72953e-007 8.25995 3.72199 17.8076 47.1052 15.8939 53.0407 3.31793 2.51143 -20.7888 39.1691 16.5901 -24.0708 3.00132e-006 1.35075e-006 1.47607e-006 1.14056e-006 -9.30377e-007 7.95992e-007 -6.36111e-015 -1.09332e-015 3.77691e-015 7.72434e-032 -3.18055e-015 1.39149e-015 3.00132e-006 1.35075e-006 1.47607e-006 1.14056e-006 -9.30377e-007 7.95992e-007 -6.36111e-015 1.09332e-015 -1.59028e-015 3.00132e-006 1.35075e-006 1.47607e-006 1.14056e-006 -9.30377e-007 7.95992e-007 -6.36111e-015 1.09332e-015 -1.59028e-015 7.72434e-032 -3.18055e-015 1.39149e-015 3.00132e-006 1.35075e-006 1.47607e-006 1.14056e-006 -9.30377e-007 7.95992e-007 -6.36111e-015 1.09332e-015 -1.59028e-015 3.00132e-006 1.35075e-006 1.47607e-006 1.14056e-006 -9.30377e-007 7.95992e-007 -6.36111e-015 1.09332e-015 -1.59028e-015 12.5722 12.0254 21.3163 -10.4052 60.1653 10.9199 2.34219 4.28423 -0.236661 -75.6375 -34.9194 -46.3323 -178.532 50.6924 169.408 -5.43672 32.2568 -4.56571 
9.03006 -9.09118 7.83746 105.415 -4.35275 164.598 1.39203e-005 20.7994 -4.55428e-006 -6.87378e-006 41.5988 -1.92457e-005 1.46417e-005 41.5988 3.2593e-006 8.03129e-005 30.9992 -6.222e-005 6.15357e-006 -35.0004 -1.10683e-005 -1.61063e-005 -2.57399e-006 -5.68393e-006 -45.9855 -2.65551 -85.9881 -16.6063 13.6967 -128.964 49.7951 14.4274 13.6601 -1.77925e-006 2.64837e-006 1.1459e-006 -4.42761e-006 8.6912e-007 1.55848e-006 -8.89623e-007 1.32418e-006 5.72952e-007 1.59028e-015 6.36111e-015 -0 -1.77925e-006 2.64837e-006 1.1459e-006 -4.42761e-006 8.6912e-007 1.55848e-006 -8.89623e-007 1.32418e-006 5.72953e-007 -1.77925e-006 2.64837e-006 1.1459e-006 -4.42761e-006 8.6912e-007 1.55848e-006 -8.89623e-007 1.32418e-006 5.72953e-007 1.59028e-015 6.36111e-015 -0 -1.77925e-006 2.64837e-006 1.1459e-006 -4.42761e-006 8.6912e-007 1.55848e-006 -8.89623e-007 1.32418e-006 5.72953e-007 -1.77925e-006 2.64837e-006 1.1459e-006 -4.42761e-006 8.6912e-007 1.55848e-006 -8.89623e-007 1.32418e-006 5.72953e-007 8.25995 3.72199 17.8076 47.1052 15.8939 53.0407 3.27471 2.54373 -19.7876 39.1691 16.5901 -24.0708 1.12986e-006 -9.39596e-007 7.98734e-007 -1.12986e-006 9.39596e-007 -7.98734e-007 6.36111e-015 -5.56597e-015 -7.95139e-016 1.10348e-032 3.97569e-016 -1.59028e-015 1.12986e-006 -9.39596e-007 7.98734e-007 -1.12986e-006 9.39596e-007 -7.98734e-007 9.54166e-015 -3.57812e-015 -3.18055e-015 1.12986e-006 -9.39596e-007 7.98734e-007 -1.12986e-006 9.39596e-007 -7.98734e-007 9.54166e-015 -3.57812e-015 -3.18055e-015 1.10348e-032 3.97569e-016 -1.59028e-015 1.12986e-006 -9.39596e-007 7.98734e-007 -1.12986e-006 9.39596e-007 -7.98734e-007 9.54166e-015 -3.57812e-015 -3.18055e-015 1.12986e-006 -9.39596e-007 7.98734e-007 -1.12986e-006 9.39596e-007 -7.98734e-007 9.54166e-015 -3.57812e-015 -3.18055e-015 12.9246 11.4264 20.9594 -10.6139 60.9324 11.2137 2.33545 4.38552 -0.23644 -75.4611 -34.8838 -46.0801 -178.532 50.6704 169.368 -5.46055 32.255 -4.58338 
